<svg width="310" height="73" viewBox="0 0 310 73" fill="none" xmlns="http://www.w3.org/2000/svg"><g clip-path="url(#a)"><path d="M105.444 56.2214V39.5556H90.7857V56.2214H83.3223V16.7026H90.7857V32.9579H105.444V16.7026H112.907V56.2214H105.444Z" fill="black" style="fill:black;fill-opacity:1;"/><path d="M140.268 56.221H134.342L133.804 54.2656C131.243 55.9304 128.254 56.8171 125.199 56.8181C119.915 56.8181 117.661 53.1983 117.661 48.2128C117.661 42.3391 120.214 40.0851 126.087 40.0851H133.028V37.055C133.028 33.8532 132.14 32.7262 127.513 32.7262C124.822 32.7449 122.139 33.0324 119.505 33.5845L118.616 28.0691C121.845 27.1754 125.178 26.7161 128.528 26.7032C137.603 26.7032 140.275 29.905 140.275 37.152L140.268 56.221ZM133.028 45.3021H127.692C125.319 45.3021 124.669 45.9514 124.669 48.1531C124.669 50.1682 125.319 51.0638 127.58 51.0638C129.495 51.0329 131.372 50.5195 133.036 49.5711L133.028 45.3021Z" fill="black" style="fill:black;fill-opacity:1;"/><path d="M154.277 56.8107C150.889 56.7551 147.528 56.1941 144.306 55.1464L145.313 49.6309C148.112 50.4318 151.007 50.851 153.919 50.8773C157.12 50.8773 157.598 50.1309 157.598 47.9666C157.598 46.1903 157.24 45.2947 152.553 44.1677C145.492 42.4436 144.664 40.6673 144.664 35.0922C144.664 29.2782 147.216 26.7257 155.463 26.7257C158.381 26.7284 161.288 27.0665 164.128 27.7333L163.382 33.4876C160.758 33.0034 158.101 32.7264 155.434 32.6591C152.292 32.6591 151.754 33.4055 151.754 35.1519C151.754 37.4655 151.933 37.6447 155.852 38.6522C163.942 40.7942 164.718 41.8615 164.718 47.765C164.718 53.3701 162.994 56.8107 154.277 56.8107Z" fill="black" style="fill:black;fill-opacity:1;"/><path d="M186.258 56.221V36.0698C186.258 34.5249 185.608 33.7562 183.944 33.7562C182.168 33.7562 179.018 34.8234 176.406 36.1893V56.221H169.167V15.5156L176.406 14.5081V29.517C179.683 27.8347 183.286 26.8824 186.967 26.7257C191.773 26.7257 193.49 30.1066 193.49 35.2712V56.221H186.258Z" fill="black" style="fill:black;fill-opacity:1;"/><path d="M198.833 23.2328V14.8663H206.073V23.2328H198.833ZM198.833 56.2211V27.3228H206.073V56.2211H198.833Z" fill="black" style="fill:black;fill-opacity:1;"/><path d="M211.119 27.5617C211.119 20.3222 215.328 16.1128 225.18 16.1128C228.799 16.112 232.406 16.5506 235.92 17.4189L235.099 23.8822C231.898 23.2758 228.653 22.9387 225.396 22.8746C220.231 22.8746 218.575 24.6584 218.575 28.8454V44.0334C218.575 48.2428 220.239 50.0041 225.396 50.0041C228.653 49.94 231.898 49.603 235.099 48.9966L235.927 55.4673C232.413 56.3357 228.807 56.7742 225.187 56.7734C215.335 56.7734 211.126 52.5641 211.126 45.3246L211.119 27.5617Z" fill="black" style="fill:black;fill-opacity:1;"/><path d="M250.771 56.8108C240.86 56.8108 238.195 51.3551 238.195 45.4216V38.1224C238.195 32.189 240.867 26.7333 250.771 26.7333C260.675 26.7333 263.347 32.189 263.347 38.1224V45.4216C263.325 51.3551 260.66 56.8108 250.771 56.8108ZM250.771 32.9279C246.913 32.9279 245.435 34.6519 245.435 37.9135V45.6605C245.435 48.922 246.928 50.646 250.771 50.646C254.615 50.646 256.107 48.922 256.107 45.6605V37.8836C256.093 34.6221 254.607 32.8981 250.771 32.8981V32.9279Z" fill="black" style="fill:black;fill-opacity:1;"/><path d="M282.551 33.3758C279.894 34.5798 277.334 35.9871 274.893 37.5852V56.2437H267.654V27.323H273.766L274.244 30.5248C276.599 28.9304 279.153 27.6531 281.842 26.726L282.551 33.3758Z" fill="black" style="fill:black;fill-opacity:1;"/><path d="M310.001 46.6084C310.001 53.0194 307.15 56.8108 300.448 56.8108C297.854 56.7836 295.27 56.5036 292.731 55.9749V67.9164L285.491 68.9239V27.3229H291.246L291.992 29.756C294.63 27.7864 297.835 26.7258 301.127 26.7333C306.941 26.7333 310.023 30.1739 310.023 36.7641L310.001 46.6084ZM292.738 49.8699C294.845 50.3335 296.993 50.5835 299.149 50.6162C301.761 50.6162 302.769 49.3698 302.769 46.7576V36.5701C302.769 34.1967 301.881 32.8906 299.209 32.8906C296.813 32.9769 294.523 33.9013 292.738 35.5028V49.8699Z" fill="black" style="fill:black;fill-opacity:1;"/><path d="M28.5261 -0.000366211L0.000976562 16.4564V16.4639V55.9752L10.7184 62.1623V22.6436L28.5261 12.359V-0.000366211Z" fill="black" style="fill:black;fill-opacity:1;"/><path d="M39.9077 -0.000732422V31.4724H28.526V19.725L17.8086 25.9122V66.237L28.526 72.4391V41.0555H39.9077V52.7208L50.6252 46.5411V6.18643L39.9077 -0.000732422Z" fill="black" style="fill:black;fill-opacity:1;"/><path d="M39.9077 72.454L68.4329 55.9972V55.9822V16.4784L57.7154 10.2913V49.81L39.9077 60.0946V72.454Z" fill="black" style="fill:black;fill-opacity:1;"/></g><defs><clipPath id="a"><rect width="310" height="72.4547" fill="white" style="fill:white;fill-opacity:1;"/></clipPath></defs></svg>